<?xml version="1.0" encoding="utf-8"?>
<!-- Generator: Adobe Illustrator 26.0.1, SVG Export Plug-In . SVG Version: 6.00 Build 0)  -->
<svg version="1.1" id="Capa_1" xmlns="http://www.w3.org/2000/svg" xmlns:xlink="http://www.w3.org/1999/xlink" x="0px" y="0px"
	 viewBox="0 0 2000 2000" style="enable-background:new 0 0 2000 2000;" xml:space="preserve">
<g transform="translate(0,-952.36218)">
	<path d="M116.4,1216.3c-54.2,0-98.2,43.9-98.2,98.2c0,54.2,44,98.2,98.2,98.2h1766.9c54.2,0,98.2-43.9,98.2-98.2
		c0-54.2-44-98.2-98.2-98.2H116.4z M116.4,1854.3c-54.2,0-98.2,43.9-98.2,98.2c0,54.2,44,98.2,98.2,98.2h1766.9
		c54.2,0,98.2-43.9,98.2-98.2s-44-98.2-98.2-98.2H116.4z M116.4,2492.4c-54.2,0-98.2,43.9-98.2,98.2s44,98.2,98.2,98.2h1766.9
		c54.2,0,98.2-43.9,98.2-98.2s-44-98.2-98.2-98.2H116.4z"/>
</g>
</svg>
